<?xml version="1.0" encoding="UTF-8"?>
<svg id="svg" xmlns="http://www.w3.org/2000/svg" xmlns:xlink="http://www.w3.org/1999/xlink" viewBox="0 0 300 300">
  <defs>
    <style>
      .cls-1 {
        fill: none;
      }

      .cls-2 {
        fill: #b28610;
      }

      .cls-3 {
        fill: #68a6da;
      }

      .cls-4 {
        fill: url(#linear-gradient-5);
      }

      .cls-5 {
        fill: url(#linear-gradient-6);
      }

      .cls-6 {
        fill: url(#linear-gradient-4);
      }

      .cls-7 {
        fill: url(#linear-gradient-3);
      }

      .cls-8 {
        fill: url(#linear-gradient-2);
      }

      .cls-9 {
        fill: url(#linear-gradient);
      }

      .cls-10 {
        fill: #2b5480;
      }

      .cls-11 {
        fill: #191a2d;
      }

      .cls-12 {
        fill: #5590c8;
      }

      .cls-13 {
        fill: #4789cd;
      }

      .cls-14 {
        clip-path: url(#clippath);
      }

      .cls-15 {
        fill: #b68509;
      }

      .cls-16 {
        fill: #ebbd11;
      }
    </style>
    <clipPath id="clippath">
      <rect class="cls-1" width="299.99" height="299.99"/>
    </clipPath>
    <linearGradient id="linear-gradient" x1="144.3" y1="59.98" x2="147.88" y2="234.26" gradientTransform="translate(0 302) scale(1 -1)" gradientUnits="userSpaceOnUse">
      <stop offset="0" stop-color="#316091"/>
      <stop offset="1" stop-color="#4689cd"/>
    </linearGradient>
    <linearGradient id="linear-gradient-2" x1="57.22" y1="88.9" x2="87.08" y2="194.97" gradientTransform="translate(0 302) scale(1 -1)" gradientUnits="userSpaceOnUse">
      <stop offset="0" stop-color="#214a76"/>
      <stop offset="1" stop-color="#6f9dc2"/>
    </linearGradient>
    <linearGradient id="linear-gradient-3" x1="149.11" y1="40.08" x2="146.92" y2="231.14" gradientTransform="translate(0 302) scale(1 -1)" gradientUnits="userSpaceOnUse">
      <stop offset="0" stop-color="#2f5c8b"/>
      <stop offset="1" stop-color="#4789cc"/>
    </linearGradient>
    <linearGradient id="linear-gradient-4" x1="151.92" y1="179.95" x2="172.66" y2="167.94" gradientTransform="translate(0 302) scale(1 -1)" gradientUnits="userSpaceOnUse">
      <stop offset="0" stop-color="#fbd30b"/>
      <stop offset="1" stop-color="#dfab18"/>
    </linearGradient>
    <linearGradient id="linear-gradient-5" x1="190.26" y1="185.9" x2="197.96" y2="189.65" gradientTransform="translate(0 302) scale(1 -1)" gradientUnits="userSpaceOnUse">
      <stop offset="0" stop-color="#f8cf07"/>
      <stop offset="1" stop-color="#ddac1b"/>
    </linearGradient>
    <linearGradient id="linear-gradient-6" x1="102.79" y1="135.58" x2="147.4" y2="137.55" gradientTransform="translate(0 302) scale(1 -1)" gradientUnits="userSpaceOnUse">
      <stop offset="0" stop-color="#f9cf06"/>
      <stop offset="1" stop-color="#e1ae1b"/>
    </linearGradient>
  </defs>
  <g class="cls-14">
    <path d="M0,0h300v300H0V0Z"/>
    <path class="cls-11" d="M137.18,9.65c77.66-7.11,146.32,50.21,153.21,127.89,6.88,77.68-50.63,146.18-128.32,152.84-77.39,6.64-145.55-50.59-152.41-127.96C2.8,85.06,59.84,16.73,137.18,9.65Z"/>
    <path class="cls-9" d="M195.07,29.33c-.44-.37-1.19-.93-1.26-1.5-.39-3.2,4.9-1.86,2.89.84-.34.46-.54.3-.54.92.76.6,1.11,2.22,1.48,3.17.58,1.48,1.25,2.93,2.01,4.33,2.8,5.14,6.26,9.6,10.19,13.91.96,1.06,1.98,2.32,3.15,3.15,1.23.87,15.73,5.26,18.38,6.11,3.35,1.07,6.67,2.26,10.04,3.25.03,2.64.03,5.29,0,7.93.73.45,1.47.86,2.22,1.28l.31.08c.05.43.05.27-.06.68.19.23,2.7,1.89,3.31,2.36,15.41,12.06,4.27,29.64-5.76,40.62v22.67c0,4.96.09,9.78-.22,14.72-1.79,28.12-14.09,52.43-33.96,72.18-17.24,17.14-35.77,28.19-57.23,38.96-17.69-8.92-33.44-17.95-48.67-31.01-4.63-3.97-7.88-7.54-12.13-11.52-5.99-1.58-15.99-6.85-21.24-10.02-13.77-8.22-24.98-21.22-28.33-37.19-4.16-19.84,3.99-39.8,15.75-55.5.68-.91,3.38-3.69,3.17-4.59-.69.67-2.08,2.22-3.02,2.19l-.05-.26c.46-1.3,2.06-2.75,3.08-3.71.22-16.46,0-33.41.02-49.91,2.78-.61,8.68-2.74,11.66-3.7l20.23-6.55c3.76-1.23,8.31-2.85,12.08-3.91.46-1.02,1.35-2.29,1.13-3.18-.77-.67-.85-1.01-.67-2.02.63-.4.47-.45.84-1.02,1.02-.1,1.85-.19,2.5.7.29,1.49-1.02,2.59-.35,3.64.57.33,1.32.27,1.92.09,3.45-1.02,6.99-2.2,10.41-3.31l20.24-6.59c3.62-1.18,8.02-2.77,11.62-3.72,10.61,3.58,22.38,7.45,33.05,10.63,4.02-3.95,8.12-7.95,10.44-13.18.36-.81.74-1.45,1.39-2.05h0Z"/>
    <path class="cls-3" d="M195.07,29.33c-.44-.37-1.19-.93-1.26-1.5-.39-3.2,4.9-1.86,2.89.84-.34.46-.54.3-.54.92.76.6,1.11,2.22,1.48,3.17.58,1.48,1.25,2.93,2.01,4.33,2.8,5.14,6.26,9.6,10.19,13.91.96,1.06,1.98,2.32,3.15,3.15,1.23.87,15.73,5.26,18.38,6.11,3.35,1.07,6.67,2.26,10.04,3.25.03,2.64.03,5.29,0,7.93.73.45,1.47.86,2.22,1.28l.31.08c.05.43.05.27-.06.68.19.23,2.7,1.89,3.31,2.36,15.41,12.06,4.27,29.64-5.76,40.62-.04-2.4.08-4.88.05-7.29-.04-3.51-.15-7.16-.03-10.67-.02-4.24-.09-8.64,0-12.87,0-.82-1.7-2.32-2.35-2.97-.71-.93-2.42-2.23-3.4-2.9-7.41-5.12-16.43-7.78-25.21-9.39-1.34-.25-3.18-.61-4.52-.66-5.19-.97-9.41-1.11-14.69-1.23-31.33-.74-63.42,9.03-89.28,26.68-9.51,6.49-16.41,12.8-24.26,20.99l-.88,1.01c-6.17,6.45-12.11,16.08-16.26,23.92-.37.89-2.08,4.48-2.19,5.07l-.22-.14c-.24.65-.7,2.55-.95,3.43-.67,2.29-1.79,4.88-2.46,7.06-.49,2.9-1.05,6.22-1.1,9.07-.3,16.13,7.58,30.45,20.5,39.85.72.52,2.08,1.81,2.89,2.05l.24-.08c.62.58,2.05,3,2.61,3.78.78,1.08,1.57,2.08,2.4,3.13,1.17,1.5,2.38,2.96,3.63,4.39.55.63,2.95,3.25,3.25,3.77-5.99-1.58-15.99-6.85-21.24-10.02-13.77-8.22-24.98-21.22-28.33-37.19-4.16-19.84,3.99-39.8,15.75-55.5.68-.91,3.38-3.69,3.17-4.59-.69.67-2.08,2.22-3.02,2.19l-.05-.26c.46-1.3,2.06-2.75,3.08-3.71.22-16.46,0-33.41.02-49.91,2.78-.61,8.68-2.74,11.66-3.7l20.23-6.55c3.76-1.23,8.31-2.85,12.08-3.91.46-1.02,1.35-2.29,1.13-3.18-.77-.67-.85-1.01-.67-2.02.63-.4.47-.45.84-1.02,1.02-.1,1.85-.19,2.5.7.29,1.49-1.02,2.59-.35,3.64.57.33,1.32.27,1.92.09,3.45-1.02,6.99-2.2,10.41-3.31l20.24-6.59c3.62-1.18,8.02-2.77,11.62-3.72,10.61,3.58,22.38,7.45,33.05,10.63,4.02-3.95,8.12-7.95,10.44-13.18.36-.81.74-1.45,1.39-2.05h0Z"/>
    <path class="cls-8" d="M76.23,98.12c.37-.11.6-.26.86-.13-1.83,1.62-10.2,8.18-10.44,9.98-.03.26.05.26.21.44,1.03.18,1-.22,1.22-.18,1.94.38,4.24.88,6.07,1.53,1.22.44,2.56,2.01,3.56,2.14,1.66-1.47,12.43-12.62,13.86-12.49l-.13.14c-.76.8-3.5,2.99-4.51,3.87-2.72,2.39-5.33,4.89-7.83,7.51-7.14,7.49-13.95,16.87-18.44,26.19-2.38,4.95-5.89,13.85-5.87,19.15v.23c-.49,2.9-1.04,6.22-1.1,9.07-.3,16.13,7.58,30.45,20.5,39.85.72.52,2.08,1.81,2.89,2.05l.24-.08c.62.58,2.05,3,2.61,3.78.78,1.08,1.57,2.08,2.4,3.13,1.17,1.5,2.38,2.96,3.63,4.39.55.63,2.95,3.25,3.25,3.77-5.99-1.58-15.99-6.85-21.24-10.02-13.77-8.22-24.98-21.22-28.33-37.19-4.16-19.84,3.99-39.8,15.75-55.5.68-.91,3.38-3.69,3.17-4.59.26-.12.78-.37.95-.59,1.88-2.47,3.73-5.11,6.03-7.23,1.54-1.95,4.24-4.5,6.05-6.47,0,.52-.06.85.07,1.34.78-.5,4.28-3.37,4.58-4.11h0Z"/>
    <path class="cls-12" d="M71.58,100.89c0,.52-.06.85.07,1.34-.73.73-1.76,1.77-2.59,2.34.4-.43,1.46-1.55,1.51-2.11-1.38,1.22-4.11,4.54-5.03,4.9,1.54-1.95,4.24-4.5,6.05-6.47Z"/>
    <path class="cls-10" d="M195.69,63.56c10.71.13,20.44,1.01,30.91,3.53,1.8.49,3.6.97,5.4,1.44.95.4,1.82.77,2.8,1.11,2.54,1.08,6.06,2.55,8.59,3.84.1-.01.19-.02.29-.04.09-.48.1-.24-.07-.73l.31.08c.05.43.05.27-.06.68.19.23,2.7,1.89,3.31,2.36,15.41,12.06,4.27,29.64-5.76,40.62-.04-2.4.08-4.88.05-7.29-.04-3.51-.15-7.16-.03-10.67-.02-4.24-.09-8.64,0-12.87,0-.82-1.7-2.32-2.35-2.97-.71-.93-2.42-2.23-3.4-2.9-7.41-5.12-16.43-7.78-25.21-9.39-1.34-.25-3.18-.61-4.52-.66-5.19-.97-9.41-1.11-14.69-1.23-31.33-.74-63.42,9.03-89.28,26.68-9.51,6.49-16.41,12.8-24.26,20.99l-.88,1.01c-6.17,6.45-12.11,16.08-16.26,23.92-.37.89-2.08,4.48-2.19,5.07l-.22-.14c-.24.65-.7,2.55-.95,3.43-.67,2.29-1.79,4.88-2.46,7.06v-.23c-.02-5.3,3.49-14.2,5.87-19.15,4.49-9.32,11.29-18.7,18.44-26.19,2.5-2.62,5.11-5.13,7.83-7.51,1.01-.89,3.75-3.07,4.51-3.87l.13-.14c1.7-1.17,3.8-2.96,5.54-4.25,3.48-2.54,7.06-4.94,10.73-7.19,2.51-1.55,5.08-3.01,7.69-4.39,1.08-.57,4.52-2.25,5.34-2.85,1.06-.4,2.43-1.08,3.47-1.57,7.43-3.53,15.09-6.13,22.91-8.63.85-.1,3.85-1.1,4.97-1.35,3.09-.72,6.17-1.42,9.28-2.05,11.25-2.35,22.71-3.55,34.2-3.57h0Z"/>
    <path class="cls-11" d="M241.44,85.64l.26-.12c.38.36.59,1.02.85,1.48,4.1,7.24,2.12,13.79-.91,20.91-.25-3,.09-6.74-.21-9.4-.02-4.24-.09-8.64,0-12.87Z"/>
    <path class="cls-12" d="M217.89,59.48c.79.44,4.24,2.58,4.52,3.23v.5c.11.82.06,1.91.66,2.5.47-.41.36-.96.34-1.55-.08-.62-.18-.4.11-.77.91.07,2.99,1.87,4.54,2.4l-.82.97.18.16h.13c.57-.07,1.84-.53,2.27-.22.57.4,1.69,1.32,2.18,1.84-1.8-.47-3.6-.95-5.4-1.44-10.48-2.52-20.2-3.41-30.91-3.53,5.08-.93,13.93.55,19.25,1.14.37.04,1.24.62,1.59-.27-.54-.52-1.45-.41-2.17-.51-3.93-.54-7.83-1.64-11.81-1.8-.52-.02-1.55-.02-2-.24l.59-.19c1.48.08,3.05.26,4.53.46.51.21.27.21.74.14.27-.36.21-.72.22-1.18.04.56-.05.86.23,1.23,1.45.37,2.89.44,4.36.7.46.31.22.25.72.26.5-.61.33-2.9.34-3.85.13,1.31.08,2.61.06,3.92,1.1.15,3.55.43,4.5.75.3.29.41.34.79.24.46-.86.17-3.67.27-4.87Z"/>
    <path class="cls-13" d="M217.89,59.48c.79.44,4.24,2.58,4.52,3.23v.5s-.05,2.11-.05,2.11c-1.62-.44-2.78-.72-4.45-.89.02-1.7.03-3.24-.03-4.94Z"/>
    <path class="cls-13" d="M201.08,52.92c1.66.42,2.89.82,4.5,1.36.13,2.46.09,5.38.07,7.86-1.48-.19-3.05-.38-4.53-.46-.02-2.89.02-5.88-.05-8.76Z"/>
    <path class="cls-13" d="M206.65,54.72c1.45.45,3.12,1.01,4.58,1.32.02,2.33.01,4.66-.02,6.99-1.47-.26-2.91-.32-4.36-.7-.28-.37-.19-.67-.23-1.23l.02-6.38Z"/>
    <path class="cls-13" d="M212.21,56.33c1.94.69,2.92.95,4.6,2.15.02,1.88.03,3.75.02,5.63-.95-.31-3.4-.59-4.5-.75.02-1.31.07-2.62-.06-3.92l-.07-3.11Z"/>
    <path class="cls-13" d="M76.2,95.41c0,.9,0,1.81.03,2.71-.3.74-3.8,3.62-4.58,4.11-.13-.49-.08-.82-.07-1.34,1.5-1.89,3.09-3.62,4.62-5.48Z"/>
    <path class="cls-3" d="M228.06,65.78c2.29.67,3.9,2.37,6.58,3.54.04.08.14.24.16.32-.98-.34-1.85-.71-2.8-1.11-.48-.52-1.61-1.44-2.18-1.84-.43-.3-1.71.16-2.27.21h-.13s-.18-.15-.18-.15l.82-.97Z"/>
    <path class="cls-13" d="M101.35,52.16c-.08,1.91-7.68,16.89-9.27,18.74-4.14,1.18-8.23,2.72-12.36,3.96-.99.3-1.91.63-2.93.81.24,5.68.07,11.56.03,17.25-.95,1.44-2.23,3.05-3.34,4.39-3.97,4.78-8.24,9.21-12.46,13.77-.34-.44-.13-2.33-.13-3.03,0-2.56.01-5.12.01-7.67l.02-35.3c2.22-.41,5.1-1.48,7.33-2.19,4.46-1.4,8.91-2.85,13.34-4.33l13.55-4.37c2.04-.66,4.22-1.25,6.2-2.02h0Z"/>
    <path class="cls-13" d="M149.84,36.32c.43-.06,28.52,9.12,31.32,10.09-4.53,4.04-11.85,7.91-17.5,10.02-3.39-.76-9.87-3.1-13.37-4.27-2.1.42-7.97,2.49-10.22,3.24-4.1,1.27-8.08,2.65-12.23,3.89-1.79-.5-3.97-.96-5.7-1.52-4.4-1.43-10.54-4.7-13.91-7.97,4.45-1.2,9.4-2.92,13.81-4.38l14.99-4.9c2.63-.88,5.31-1.68,7.94-2.53,1.6-.52,3.34-.95,4.87-1.64h0Z"/>
    <path class="cls-13" d="M149.88,53.3c1.02.09,10.02,3.16,11.71,3.69-4.96,2.28-13.81,3.27-19.24,3.54-2.5.29-9.58-.21-12-.94,6.15-1.97,13.58-4.05,19.53-6.29Z"/>
    <path class="cls-13" d="M91.09,72.23l.14.15c-1.86,3.96-6.13,9.39-8.7,13.11-.88,1.27-3.51,4.83-4.44,5.85l-.09-.04c-.38-1.35-.1-12.53-.09-14.73,3.03-.84,6.11-2.12,9.17-2.95,1.26-.34,2.82-.86,4.01-1.38Z"/>
    <path class="cls-13" d="M106.28,49.86c1.4.45,3.5,2.48,4.87,3.52l.06,11.31c-.37.15-.72.27-1.1.4-1.23.44-2.65.83-3.94,1.28v-10.18c0-1.98-.06-4.42.11-6.34Z"/>
    <path class="cls-13" d="M181.81,47.01c1.33-.1,3.25.56,4.61.92.12,1.46.24,12.44-.11,13.01l-4.66.02c0-4.49-.27-9.49.17-13.95h0Z"/>
    <path class="cls-13" d="M218.43,58.58c.71.05,1.48.32,2.15.56,5.05,1.83,10.2,3.37,15.31,5.04,1.05.34,2.1.72,3.19.91l-.02,5.15c-4.72-1.69-16.56-8.39-20.63-11.66Z"/>
    <path class="cls-13" d="M98.84,69.73s.05.02.06.04c.52.67.15,11.4.16,13.27-1.45.81-2.89,1.64-4.32,2.49-.25-.3-.18-13.04-.21-14.43,1.62-.39,2.73-.8,4.3-1.37Z"/>
    <path class="cls-13" d="M93.38,71.29c.3,1.24.23,13.1.18,14.93-1.51.87-3,1.78-4.46,2.72,0,0-.02-.01-.03-.02-.39-.6-.17-9.61-.17-10.93.87-1.23,3.83-6.01,4.48-6.69Z"/>
    <path class="cls-13" d="M110.99,65.78c.35.32.17,10.15.17,11.27-1.8.71-3.21,1.36-4.89,2.29-.36-.69-.17-10.4-.12-11.86l4.84-1.7Z"/>
    <path class="cls-13" d="M117.13,63.86l.23.06c.31.81.09,8.97.02,10.33-1.8.79-3.15,1.32-4.94,2.2-.21-.01-.09.01-.35-.13.09-3.51,0-7.28-.04-10.8,1.58-.46,3.42-1.16,5.08-1.67h0Z"/>
    <path class="cls-13" d="M180.4,48.31l.22.05c.1.46.06,2.77.06,3.37.05,3.1.04,6.21-.02,9.31-1.25.05-2.72.16-3.89-.3-.35-.12-.66-.24-1-.37-.44-.63-.17-7.3-.16-8.68,1.6-1.11,3.15-2.32,4.79-3.38h0Z"/>
    <path class="cls-13" d="M118.49,63.5c1.73-.63,3.54-1.23,5.29-1.83-.03,3.42-.05,6.84-.04,10.26-1.03.35-2.05.71-3.06,1.1-.37.06-1.86.69-2.3.86,0-3.47-.03-6.93.11-10.39Z"/>
    <path class="cls-13" d="M124.74,61.35c2.52-.67,2.52-1.14,5.2-.64.16,3.03.17,6.07.04,9.1-1.84.43-3.3.98-5.07,1.62-.28-.74-.24-8.85-.17-10.09Z"/>
    <path class="cls-13" d="M187.32,48.37c1.43.34,2.83.97,4.31,1.35.07,3.81.15,7.37.13,11.18-.37.25-3.59.09-4.27.08-.05-4.32,0-8.26-.17-12.61Z"/>
    <path class="cls-13" d="M103.21,51.07l.12.11c.35,1.15.1,13.76.12,16-.97.38-2.21.74-3.22,1.07-.3-.19-.28-3.23-.22-3.65.16-1.24-.24-4.98.07-5.99.67-2.13,2-5.66,3.13-7.54Z"/>
    <path class="cls-13" d="M103.13,68.43l.26.12c.16,3.74.04,8.41.04,12.21-1.19.59-2.07,1.05-3.2,1.74-.38-.52-.32-11.56-.25-13.01,1.1-.41,2.03-.75,3.16-1.05Z"/>
    <path class="cls-13" d="M112.05,53.87c1.78,1.21,3.53,2.09,5.43,3.09-.03,1.86-.01,3.76-.02,5.63l-1.41.47c-.8.39-3.05,1.01-3.98,1.29.02-3.49.02-6.99-.02-10.48Z"/>
    <path class="cls-13" d="M87.84,79.79c.31,1.15.04,8.17.04,10.02-1.52,1-3.02,2.03-4.5,3.09l-.15-.15c-.18-1.21-.07-5.14-.05-6.59,1.09-1.48,3.55-5.18,4.65-6.37Z"/>
    <path class="cls-11" d="M197.06,34.83c.63.7,2.49,4.5,3.2,5.69-.05,2.59.16,7.15-.09,9.55-.96-.26-2.3-.74-3.28-1.07.16-4.21-.26-10.33.17-14.17Z"/>
    <path class="cls-13" d="M131.06,61.05c1.62.05,3.7.4,5.45.51v6.29c-1.41.37-4.13,1.08-5.45,1.63v-8.43Z"/>
    <path class="cls-13" d="M196.75,51.44c1.15.22,2.05.71,3.51.93-.03,3.07-.03,6.14-.01,9.21-1.14-.08-2.28-.15-3.42-.2.03-3.1.08-6.88-.08-9.94Z"/>
    <path class="cls-13" d="M137.55,61.54c1.91.05,3.62.02,5.53-.03.03,1.33.13,3.55-.17,4.8-1.58.21-3.63.79-5.22,1.19-.19-.58-.13-4.89-.14-5.95Z"/>
    <path class="cls-13" d="M174.3,52.41l.1.04c.32.46.2,6.55.2,7.6-1.33-.31-2.36-.73-3.62-1.21l-1.49-.48-.05-3.38c1.64-.79,3.31-1.61,4.86-2.57Z"/>
    <path class="cls-11" d="M191.38,37.61c.36.45.22,8.56.22,9.74l-2.94-1.01-1.07-.27c-.09-1.39-.09-2.59-.09-3.98,1.45-1.59,2.53-2.81,3.88-4.47Z"/>
    <path class="cls-11" d="M201.3,42.43c.61.49,3.59,4.71,4.27,5.63.01,1.22-.03,2.53-.04,3.76-1.28-.44-3-1.08-4.29-1.35l.06-8.04Z"/>
    <path class="cls-13" d="M161.88,58.01l.3.03c.22.59.12,3.6.12,4.46-1.64.16-3.42.46-5.05.72-.2.03-.09.04-.32-.1-.13-.96-.06-2.57-.05-3.59,1.84-.49,3.22-.91,5.01-1.53Z"/>
    <path class="cls-13" d="M143.98,61.48c1.91-.11,3.61-.23,5.51-.44.01,1.22,0,2.45-.01,3.67-.87.13-2.24.37-3.03.72-.68.15-1.36.3-2.04.46-.63-.4-.43-3.57-.43-4.42h0Z"/>
    <path class="cls-13" d="M82,87.73c.31.4.18,5.15.18,6.02-1.38,1.05-2.73,2.13-4.06,3.24-.32-.42-.2-3.32-.19-4.04,1.4-1.68,2.73-3.49,4.08-5.22Z"/>
    <path class="cls-13" d="M98.93,60.45c.32.74.16,6.92.15,8.26-1.49.39-2.8.83-4.26,1.31l-.24-.08c-.24-1.22,3.6-7.84,4.34-9.49Z"/>
    <path class="cls-13" d="M155.76,59.78l.18.17c.13,1.02.07,2.46.07,3.53-1.6.15-3.65.59-5.24.9l-.17-.04c-.16-.42-.01-2.87,0-3.49,1.89-.37,3.28-.61,5.16-1.07Z"/>
    <path class="cls-11" d="M194.03,33.65c.13,1.17.09,4.9.07,6.25-.03,2.25.13,5.85-.06,7.96-.38.2-.54.05-1.09-.08-.39-.51-.28-10.9-.24-12.21.46-.74.79-1.23,1.32-1.92h0Z"/>
    <path class="cls-13" d="M163.29,57.75l.14.03c1.84.33,3.22,1.08,5.03,1.38.01.66.13,2.16-.2,2.62-1.41.05-3.51.3-4.92.47l-.05-4.49Z"/>
    <path class="cls-13" d="M118.38,57.33c1.49.65,4.02,1.14,5.29,2.12.29.23.19.53.14.81-.51.56-.41.4-1.23.68-1.37.42-2.74.86-4.11,1.32.07-1.58-.03-3.34-.09-4.93Z"/>
    <path class="cls-13" d="M192.69,49.99c.35.13.83.26,1.1.51.66.61.34,9.25.34,10.62-.6.02-.69.03-1.27-.09-.43-.77-.19-9.5-.17-11.03Z"/>
    <path class="cls-11" d="M206.83,49.58c.83.73,2.83,2.91,3.55,3.79-.89-.16-2.7-.83-3.62-1.14-.06-.9.02-1.75.07-2.65Z"/>
    <path class="cls-13" d="M169.52,59.55c1.12.38,3.25.96,4.17,1.44l.07.23c-1.07.22-3.07.29-4.22.34v-2.01Z"/>
    <path class="cls-13" d="M168.26,55.5l.13.11c.17.53.1,1.88.09,2.5-.82-.25-1.64-.53-2.44-.84-.46-.17-.34-.03-.6-.35.45-.43,2.16-1.12,2.84-1.43Z"/>
    <path d="M186.05,43.45l.21.09c.14.7.31,1.21-.06,1.81-.44.18-.42.07-1.01-.13l-.47-.15v-.29c.36-.59.8-.89,1.33-1.34h0Z"/>
    <path class="cls-7" d="M204.62,69.72h1.34c1.34.05,3.17.42,4.52.66,8.78,1.61,17.8,4.27,25.21,9.39.98.68,2.69,1.97,3.4,2.9.65.65,2.34,2.15,2.35,2.97-.09,4.23-.02,8.62,0,12.87-.12,3.51,0,7.16.03,10.67.03,2.41-.09,4.89-.05,7.29v22.67c0,4.96.09,9.78-.22,14.72-1.79,28.12-14.09,52.43-33.96,72.18-17.24,17.14-35.77,28.19-57.23,38.96-17.69-8.92-33.44-17.95-48.67-31.01-4.63-3.97-7.88-7.54-12.13-11.52-.29-.52-2.69-3.15-3.25-3.77-1.25-1.43-2.46-2.89-3.63-4.39-.83-1.05-1.62-2.06-2.4-3.13-.57-.78-1.99-3.2-2.61-3.78l-.24.08c-.8-.24-2.16-1.52-2.89-2.05-12.92-9.4-20.8-23.72-20.5-39.85.05-2.85.61-6.18,1.1-9.07.66-2.18,1.79-4.78,2.46-7.06.26-.87.72-2.78.95-3.43l.22.14c.11-.59,1.82-4.18,2.19-5.07,4.15-7.85,10.08-17.48,16.26-23.92l-.02,17.56c0,11.1-.22,18.11,2.15,29.23,6.36,29.79,27.04,52.13,51.81,68.52,3.83,2.53,7.75,4.92,11.75,7.18,2.17,1.22,5.26,2.72,7.25,4.03l.2.13c15.5-8.42,28.58-16.68,41.41-28.95,18.33-17.54,29.61-38.67,31.58-64.13.28-3.6.24-7.81.23-11.45l-.02-13.39c0-16.66-.15-33.62.1-50.26-4.07-1.18-8.23-2.62-12.29-3.88-2.06-.64-4.32-1.62-6.39-2.03h0Z"/>
    <path class="cls-3" d="M239.09,82.67c.65.65,2.34,2.15,2.35,2.97-.09,4.23-.02,8.62,0,12.87-.12,3.51,0,7.16.03,10.67.03,2.41-.09,4.89-.05,7.29v22.67c0,4.96.09,9.78-.22,14.72-1.79,28.12-14.09,52.43-33.96,72.18-17.24,17.14-35.77,28.19-57.23,38.96-17.69-8.92-33.44-17.95-48.67-31.01-4.63-3.97-7.88-7.54-12.13-11.52-.29-.52-2.69-3.15-3.25-3.77-1.25-1.43-2.46-2.89-3.63-4.39-.83-1.05-1.62-2.06-2.4-3.13-.57-.78-1.99-3.2-2.61-3.78l-.24.08c-.8-.24-2.16-1.52-2.89-2.05-12.92-9.4-20.8-23.72-20.5-39.85.05-2.85.61-6.18,1.1-9.07.66-2.18,1.79-4.78,2.46-7.06.26-.87.72-2.78.95-3.43l.22.14c.11-.59,1.82-4.18,2.19-5.07.6,1.2.29,7.36.35,9.13,2.05,55,42.3,88.88,89.04,112.1,4.86-2.15,11.87-6.06,16.48-8.72,35.25-20.27,65.69-49.67,71.52-91.72,1.24-8.92,1.04-14.8,1.05-23.72l-.02-23.17v-22.91c0-1.55-.25-8.48.05-9.39h0Z"/>
    <path class="cls-11" d="M54.79,156.51c.66-2.18,1.79-4.78,2.46-7.06.26-.87.72-2.78.95-3.43l.22.14c.3,1.95.1,4.16.25,6.15.24,3.07.56,6.13.91,9.19,1.9,15.62,8.49,33.08,17.73,45.9l-.24.08c-.8-.24-2.16-1.52-2.89-2.05-12.92-9.4-20.8-23.72-20.5-39.85.05-2.85.61-6.18,1.1-9.07Z"/>
    <path class="cls-3" d="M222.09,76.54c-1.98-.53-19.3-6.18-19.6-6.49l.41-.11v-.17s-1.01-.09-1.01-.09l-.15-.19c.61-.09,1.96.2,2.76.22h.13c2.07.41,4.33,1.39,6.39,2.03,4.06,1.25,8.22,2.7,12.29,3.88-.24,16.63-.09,33.6-.1,50.26l.02,13.39c.01,3.64.05,7.85-.23,11.45-1.97,25.46-13.25,46.6-31.58,64.13-12.83,12.28-25.92,20.54-41.41,28.95l-.2-.13c-1.98-1.3-5.08-2.81-7.25-4.03-4-2.26-7.92-4.65-11.75-7.18-24.76-16.39-45.45-38.72-51.81-68.52-2.37-11.11-2.15-18.13-2.15-29.23l.02-17.56.88-1.01c.43.79.07,28.02.24,31.58.3,5.99,1.12,11.95,2.43,17.8,6.24,27.8,26.6,49.57,49.61,65.08,4.12,2.77,8.34,5.39,12.64,7.85,2.36,1.36,5.18,2.77,7.39,4.18,1.17-.78,2.8-1.6,4.05-2.31,2.84-1.62,5.76-3.19,8.54-4.91,11.99-7.4,23.03-15.71,32.65-25.97,15.98-17.03,25.67-37.49,26.69-60.93.17-3.99.16-8.05.15-12.07-.03-5.01-.03-10.02,0-15.03v-30.58c-.03-4.66.11-9.69-.05-14.3h0Z"/>
    <path class="cls-15" d="M165.23,117.16c.91-1.25,4.6-4.68,5.87-5.98,2.7-2.69,5.36-5.39,8.11-8.03,1-.96,2.62-1.59,3.8-.65,1.38,1.11,4.95,4.21,5.39,5.81l.26.28c.52-.21,1.86-1.71,2.33-2.19.41.35.82.73,1.22,1.09l5.96,5.99c1.08,1.07,2.96,2.79,3.81,3.93-.65.76-3.88,4.09-4.62,4.57-.2-.02-.3,0-.43-.08-1.11-1.26-9.08-8.93-9.31-9.53-.97-.51-1.31.31-2,1.09,2.04,2.03,5.31,4.99,7.04,7.09-1.51,1.63-3.2,3.24-4.8,4.8-.38-.4-1-.99-1.28-1.44-1.7-1.5-4.03-4.04-5.73-5.72-2.09,1.84-4.35,4.19-6.36,6.19l-11.53,11.58-10.78,10.77c-1.86,1.86-4.45,4.32-6.11,6.24,3.43,6.51,4.44,12.52,2.23,19.73-1.87,6.2-6.18,11.37-11.95,14.31-5.72,3-12.41,3.57-18.56,1.57-6.18-2.01-11.31-6.2-14.26-12.03-3.01-5.81-3.53-12.59-1.46-18.79,2.03-6.1,6.4-11.14,12.15-14.02,5.9-2.95,12.73-3.4,18.96-1.24,1.63.56,2.99,1.24,4.52,2.01l14.67-14.65c1.79-1.77,4.52-4.69,6.31-6.24h1.58c1.92-.04,2.7.11,4.1-1.23l.36-.49c.66-1.04.51-2.01.53-3.27l-.04-1.48Z"/>
    <path class="cls-6" d="M165.27,118.64c4.94-4.99,9.96-9.96,14.97-14.87,1.32-1.29,2.49-.5,3.42.66,1.08,1.33,3.77,3.2,3.68,5.01-.85,1.58-5.53,6.01-7.1,7.58-3.38,3.47-6.79,6.9-10.24,10.3-8.48,8.43-17.08,17.44-25.68,25.68-1.08.21-1.4.35-2.37-.35-1.26-.91-3.71-3.46-4.56-4.76l.22-1.53c1.7-1.85,3.79-3.84,5.59-5.64,4.35-4.28,8.65-8.61,12.91-12.98,1.06-1.1,3.43-3.14,4.17-4.11,1.92-.04,2.7.12,4.1-1.23l.36-.49c.66-1.04.51-2.01.53-3.27h0Z"/>
    <path class="cls-4" d="M188.4,108.31l.26.28c.52-.21,1.86-1.71,2.33-2.19.41.35.82.73,1.22,1.09l5.96,5.99c1.08,1.07,2.96,2.79,3.81,3.93-.65.76-3.88,4.09-4.62,4.57-.2-.02-.3,0-.43-.08.54-.37,2.88-3.12,3.13-3.68-.92.76-1.92,1.83-2.76,2.7-2.99-3-6.77-7.01-9.86-9.81.83-.79,1.82-1.67,2.51-2.55-.66.24-.84.61-1.53.77l-.16-.17c-.13-.6-.18-.33.13-.84Z"/>
    <path class="cls-2" d="M188.4,108.31l.26.28c.52-.21,1.86-1.71,2.33-2.19.41.35.82.73,1.22,1.09l5.96,5.99c1.08,1.07,2.96,2.79,3.81,3.93-.65.76-3.88,4.09-4.62,4.57-.2-.02-.3,0-.43-.08.54-.37,2.88-3.12,3.13-3.68.05-.07.72-.79.82-.89-1.02-1.06-2.23-2.09-3.27-3.15-2.19-2.21-4.36-4.39-6.6-6.55-.24.17-1.13.98-1.05.93-.66.24-.84.61-1.53.77l-.16-.17c-.13-.6-.18-.33.13-.84h0Z"/>
    <path class="cls-16" d="M184.75,113.9c1.53,1.68,4.99,5.01,6.76,6.64-.87.85-2.73,2.83-3.53,3.44l-.32-.07h-.14s.04.29.04.29l-.31.06-.34-.35h-.31c-1.7-1.5-4.03-4.04-5.73-5.72,0-.68-.11-.41.23-.87,1.05-.84,2.65-2.46,3.65-3.43Z"/>
    <path class="cls-2" d="M181.1,117.33c.86.67,6.21,5.87,6.56,6.58h-.14s.04.29.04.29l-.31.06-.34-.35h-.31c-1.7-1.5-4.03-4.04-5.73-5.72,0-.68-.11-.41.23-.87Z"/>
    <path class="cls-5" d="M122.55,143.02c3.35-.7,11.47.66,13.96,3.12-.02.25-.08,1.33-.04,1.44.58,1.66,4.73,5.4,5.95,6.42l.13.11c.7.04,1.43,0,2.14-.04,3.3,6.25,4.03,12.61,1.57,19.29-3.11,8.46-9.74,13.05-18.4,14.51-5.82.72-11.69-.87-16.35-4.44-4.87-3.67-8.04-9.16-8.77-15.21-.79-6.09.98-11.97,4.74-16.79,3.72-4.68,9.14-7.7,15.07-8.41h0Z"/>
    <path class="cls-11" d="M123.32,152.42c7.21-1.02,13.88,4.02,14.88,11.23,1,7.21-4.05,13.87-11.27,14.85-7.19.98-13.82-4.05-14.81-11.24-.99-7.19,4.02-13.83,11.2-14.84Z"/>
    <path class="cls-3" d="M139.46,99.01c-.02-4.45-.83-12.29,2.36-15.73,3.64-3.92,12.37-4.1,16.11-.27,3.46,3.54,2.63,11.41,2.6,16.06l2.66.04c.86.63,1.25,1.14,1.86,1.97.29,1.72.14,4,.17,5.77.04,3.39-.1,6.93,0,10.31l.04,1.48c-.02,1.26.13,2.23-.53,3.27l-.36.49c-1.4,1.34-2.17,1.19-4.1,1.23h-1.58c-1.76-.12-4.02-.03-5.84-.02l-9.71.04c-3.31,0-6.35.8-8.24-2.38-.44-5.11.21-11.04-.06-16.24-.21-4.03.05-6,4.61-6.01h0Z"/>
    <path class="cls-10" d="M157.22,100.19c1.4,2.23,2.26.57,3.93-.09.14-.06,1.22.1,1.47.13.59.57.92.9,1.45,1.56.08,5.4-.03,10.91.01,16.34-.01.87-.02,1.74,0,2.61-.53.88-.95,1.17-1.81,1.73-7.87-.4-16.84.27-24.82-.09l-1.4-1.26c-.2-1.76-.11-5.74-.1-7.64.02-3.89-.08-8.06.05-11.93l1.35-1.36c.25-.02,1.37-.12,1.54-.05,1.9.75,2.44,2.26,4.04-.02,4.77.04,9.53.06,14.3.05h0Z"/>
    <path class="cls-11" d="M149.52,106.38c4.06-.32,5.38,4.43,2.37,6.49-.29.19.07,3.77-.33,4.23l-.65.05h-2.67s-.04-4.35-.04-4.35c-.89-.44-1.36-1.08-1.61-2.05-.24-.95-.07-1.95.47-2.77.62-.96,1.38-1.36,2.46-1.59Z"/>
    <path class="cls-12" d="M164.08,118.14c.25,1.41-.03,2.52.26,3.69.24-.02.1-.03.39.08l-.36.49c-.72.1-1.44.28-2.12.08.87-.56,1.29-.85,1.81-1.73,0-.87,0-1.74,0-2.61h0Z"/>
    <path class="cls-13" d="M148.88,83.85c.21-.01.41-.02.62-.03,7.68-.3,7.57,4.2,7.54,10.13v5.08s-5.65-.02-5.65-.02h-8.41c.06-2.39-.05-4.88-.01-7.29.07-4.49.87-7.46,5.9-7.87Z"/>
  </g>
</svg>